<svg width="600" height="251" viewBox="0 0 600 251" fill="none" xmlns="http://www.w3.org/2000/svg">
<rect width="600" height="251" fill="white"/>
<path d="M69.12 114H73.6V69.2H69.12V114ZM104.798 114.768C113.054 114.768 120.542 110.416 124.19 103.696L120.222 101.456C117.406 106.896 111.454 110.416 104.798 110.416C99.23 110.416 94.622 108.624 91.102 104.976C87.582 101.328 85.79 96.912 85.79 91.6C85.79 86.288 87.582 81.872 91.102 78.224C94.622 74.576 99.23 72.784 104.798 72.784C111.454 72.784 117.406 76.304 120.222 81.744L124.19 79.44C120.414 72.72 113.054 68.432 104.798 68.432C98.014 68.432 92.382 70.672 87.966 75.152C83.55 79.632 81.31 85.136 81.31 91.6C81.31 98.064 83.55 103.568 87.966 108.048C92.382 112.528 98.014 114.768 104.798 114.768ZM168.614 108.048C173.094 103.504 175.334 98.064 175.334 91.6C175.334 85.136 173.094 79.696 168.614 75.216C164.134 70.672 158.63 68.432 152.166 68.432C145.702 68.432 140.198 70.672 135.718 75.216C131.238 79.696 128.998 85.136 128.998 91.6C128.998 98.064 131.238 103.504 135.718 108.048C140.198 112.528 145.702 114.768 152.166 114.768C158.63 114.768 164.134 112.528 168.614 108.048ZM138.854 104.976C135.27 101.328 133.478 96.848 133.478 91.6C133.478 86.352 135.27 81.936 138.854 78.288C142.438 74.64 146.854 72.784 152.166 72.784C157.478 72.784 161.894 74.64 165.478 78.288C169.062 81.936 170.854 86.352 170.854 91.6C170.854 96.848 169.062 101.328 165.478 104.976C161.894 108.624 157.478 110.416 152.166 110.416C146.854 110.416 142.438 108.624 138.854 104.976ZM211.795 105.68L186.835 69.2H182.995V114H187.475V77.52L212.435 114H216.275V69.2H211.795V105.68ZM239.95 114.768C244.494 114.768 248.142 113.616 250.894 111.376C253.646 109.072 255.054 106 255.054 102.224C255.054 99.92 254.286 97.808 253.454 96.464C252.686 94.992 250.446 93.456 249.166 92.688C248.526 92.24 247.502 91.792 246.158 91.28C244.814 90.704 243.79 90.32 243.086 90.128L239.63 88.912C236.11 87.76 233.55 86.608 232.014 85.52C230.478 84.432 229.71 82.768 229.71 80.528C229.71 75.664 233.422 72.784 238.99 72.784C244.302 72.784 247.95 75.28 249.998 80.208L253.774 78.096C251.278 72.464 245.966 68.432 238.99 68.432C235.086 68.432 231.822 69.52 229.198 71.76C226.574 73.936 225.23 76.944 225.23 80.72C225.23 84.624 226.958 87.568 230.35 89.616C231.822 90.576 234.894 91.792 239.566 93.328C243.47 94.608 246.286 95.824 248.014 97.04C249.742 98.256 250.574 99.984 250.574 102.352C250.574 107.216 246.67 110.416 240.014 110.416C233.166 110.416 228.75 107.152 227.15 101.584L223.31 103.824C225.614 110.672 231.758 114.768 239.95 114.768Z" fill="#1F1F1F"/>
<path d="M77 172.75L76.75 172.75V173V180.75H69H68.75L68.75 181L68.75 183V183.25H69H76.75V191V191.25H77H79H79.25V191V183.25H87H87.25V183V181V180.75H87H79.25V173V172.75L79 172.75L77 172.75Z" fill="#1F1F1F" stroke="#1F1F1F" stroke-width="0.5"/>
<path d="M143.205 185.952L147 189.746L145.746 191L141.952 187.205C140.54 188.337 138.784 188.952 136.975 188.95C132.573 188.95 129 185.377 129 180.975C129 176.573 132.573 173 136.975 173C141.377 173 144.95 176.573 144.95 180.975C144.952 182.784 144.337 184.54 143.205 185.952ZM141.427 185.294C142.552 184.138 143.18 182.588 143.177 180.975C143.177 177.547 140.401 174.772 136.975 174.772C133.547 174.772 130.772 177.547 130.772 180.975C130.772 184.401 133.547 187.177 136.975 187.177C138.588 187.18 140.138 186.552 141.294 185.427L141.427 185.294Z" fill="#1F1F1F"/>
<path d="M206 192H190C189.735 192 189.48 191.895 189.293 191.707C189.105 191.52 189 191.265 189 191V173C189 172.735 189.105 172.48 189.293 172.293C189.48 172.105 189.735 172 190 172H206C206.265 172 206.52 172.105 206.707 172.293C206.895 172.48 207 172.735 207 173V191C207 191.265 206.895 191.52 206.707 191.707C206.52 191.895 206.265 192 206 192ZM205 190V174H191V190H205ZM195 176V178C195 178.796 195.316 179.559 195.879 180.121C196.441 180.684 197.204 181 198 181C198.796 181 199.559 180.684 200.121 180.121C200.684 179.559 201 178.796 201 178V176H203V178C203 179.326 202.473 180.598 201.536 181.536C200.598 182.473 199.326 183 198 183C196.674 183 195.402 182.473 194.464 181.536C193.527 180.598 193 179.326 193 178V176H195Z" fill="black"/>
<path d="M259.306 172.894L259.2 172.788L259.094 172.894L252 179.988L244.906 172.894L244.8 172.788L244.694 172.894L242.894 174.694L242.788 174.8L242.894 174.906L249.988 182L242.894 189.094L242.788 189.2L242.894 189.306L244.694 191.106L244.8 191.212L244.906 191.106L252 184.012L259.094 191.106L259.2 191.212L259.306 191.106L261.106 189.306L261.212 189.2L261.106 189.094L254.012 182L261.106 174.906L261.212 174.8L261.106 174.694L259.306 172.894Z" fill="#1F1F1F" stroke="#1F1F1F" stroke-width="0.3"/>
</svg>
